<?xml version="1.0" encoding="UTF-8"?>
<!DOCTYPE svg PUBLIC "-//W3C//DTD SVG 1.1//EN" "http://www.w3.org/Graphics/SVG/1.1/DTD/svg11.dtd">
<svg xmlns="http://www.w3.org/2000/svg" version="1.1" width="500px" height="500px" style="shape-rendering:geometricPrecision; text-rendering:geometricPrecision; image-rendering:optimizeQuality; fill-rule:evenodd; clip-rule:evenodd" xmlns:xlink="http://www.w3.org/1999/xlink">
<g><path style="opacity:1" fill="#707174" d="M 245.5,63.5 C 259.366,62.5332 269.533,68.1999 276,80.5C 282.858,93.4065 287.524,107.073 290,121.5C 292.965,123.132 295.299,125.465 297,128.5C 297.452,136.708 293.619,139.875 285.5,138C 279.979,132.64 280.312,127.64 286.5,123C 283.769,109.249 279.269,96.0824 273,83.5C 261.96,64.7221 248.626,62.7221 233,77.5C 224.652,91.036 219.152,105.703 216.5,121.5C 217.203,123.769 218.37,125.769 220,127.5C 221.329,136.501 217.496,140.001 208.5,138C 202.512,131.276 203.679,126.109 212,122.5C 214.178,108.453 218.511,95.1194 225,82.5C 229.494,73.5011 236.327,67.1678 245.5,63.5 Z"/></g>
<g><path style="opacity:1" fill="#faa41c" d="M 167.5,115.5 C 180.5,115.5 193.5,115.5 206.5,115.5C 203.908,118.957 201.408,122.624 199,126.5C 198.399,142.239 205.566,147.739 220.5,143C 226.171,138.47 228.004,132.637 226,125.5C 225.215,123.714 224.049,122.214 222.5,121C 223.406,119.301 223.739,117.467 223.5,115.5C 241.833,115.5 260.167,115.5 278.5,115.5C 279.985,118.668 279.485,121.334 277,123.5C 272.684,135.748 276.85,143.081 289.5,145.5C 300.388,143.729 304.888,137.396 303,126.5C 300.592,122.624 298.092,118.957 295.5,115.5C 307.833,115.5 320.167,115.5 332.5,115.5C 334.303,135.829 336.136,156.163 338,176.5C 343.441,172.218 347.608,166.885 350.5,160.5C 353.175,165.988 352.675,171.321 349,176.5C 342.469,185.028 334.636,192.195 325.5,198C 276.978,225.465 224.978,236.798 169.5,232C 160.01,230.844 151.843,227.01 145,220.5C 142.924,217.783 142.257,214.783 143,211.5C 148.693,216.264 155.193,219.264 162.5,220.5C 163.852,185.484 165.518,150.484 167.5,115.5 Z"/></g>
<g><path style="opacity:1" fill="#056966" d="M 338.5,209.5 C 339.499,250.997 339.832,292.663 339.5,334.5C 280.167,334.5 220.833,334.5 161.5,334.5C 161.5,306.5 161.5,278.5 161.5,250.5C 209.789,253.277 256.456,245.777 301.5,228C 314.452,222.857 326.785,216.691 338.5,209.5 Z M 281.5,289.5 C 286.546,292.213 286.712,295.547 282,299.5C 281.819,297.206 280.985,295.039 279.5,293C 279.978,291.697 280.645,290.531 281.5,289.5 Z M 261.5,298.5 C 260.523,301.287 260.19,304.287 260.5,307.5C 259.234,314.81 254.901,317.643 247.5,316C 246.667,315.167 245.833,314.333 245,313.5C 244.325,306.472 244.492,299.472 245.5,292.5C 247.75,292.181 249.75,292.681 251.5,294C 250.527,299.407 250.193,304.907 250.5,310.5C 251.822,310.67 252.989,310.337 254,309.5C 255.131,303.888 255.631,298.221 255.5,292.5C 260.5,291.5 262.5,293.5 261.5,298.5 Z M 262.5,310.5 C 262.5,308.167 262.5,305.833 262.5,303.5C 263.86,294.24 268.694,291.24 277,294.5C 279.761,299.699 278.261,302.366 272.5,302.5C 272.663,297.422 271.496,296.755 269,300.5C 268.421,302.649 267.921,304.815 267.5,307C 267.493,308.812 268.16,310.312 269.5,311.5C 271.936,310.499 271.936,309.332 269.5,308C 270.148,306.56 270.481,305.06 270.5,303.5C 279.632,304.129 280.965,307.962 274.5,315C 268.613,317.987 264.613,316.487 262.5,310.5 Z M 292.5,292.5 C 298.675,291.677 301.675,294.344 301.5,300.5C 299.5,300.5 297.5,300.5 295.5,300.5C 295.719,299.325 295.386,298.325 294.5,297.5C 293.417,298.365 293.251,299.365 294,300.5C 296.806,302.395 299.14,304.728 301,307.5C 301.646,313.027 299.146,316.027 293.5,316.5C 291.423,316.308 289.423,315.808 287.5,315C 286.328,313.132 286.495,311.298 288,309.5C 289.897,311.016 292.064,311.683 294.5,311.5C 294.649,310.448 294.483,309.448 294,308.5C 286.004,303.72 285.504,298.387 292.5,292.5 Z M 307.5,307.5 C 312.833,308.5 312.833,309.5 307.5,310.5C 307.5,309.5 307.5,308.5 307.5,307.5 Z"/></g>
<g><path style="opacity:1" fill="#599c9a" d="M 261.5,298.5 C 261.216,300.415 261.549,302.081 262.5,303.5C 262.5,305.833 262.5,308.167 262.5,310.5C 261.833,309.5 261.167,308.5 260.5,307.5C 260.19,304.287 260.523,301.287 261.5,298.5 Z"/></g>
<g><path style="opacity:1" fill="#252525" d="M 200.5,361.5 C 203.572,361.183 206.572,361.516 209.5,362.5C 207.725,363.957 205.725,365.124 203.5,366C 204.793,366.49 206.127,366.657 207.5,366.5C 207.5,367.5 207.5,368.5 207.5,369.5C 202.5,370.003 202.833,370.336 208.5,370.5C 208.5,371.833 208.5,373.167 208.5,374.5C 205.5,374.5 202.5,374.5 199.5,374.5C 199.467,370.131 199.8,365.798 200.5,361.5 Z"/></g>
<g><path style="opacity:1" fill="#1c1c1c" d="M 280.5,364.5 C 279.801,370.4 278.801,370.734 277.5,365.5C 277.19,364.262 276.69,364.262 276,365.5C 275.333,367.5 275.333,369.5 276,371.5C 276.383,370.944 276.883,370.611 277.5,370.5C 278.5,370.5 279.5,370.5 280.5,370.5C 277.514,375.862 274.514,375.695 271.5,370C 271.977,367.101 272.977,364.434 274.5,362C 276.167,361.333 277.833,361.333 279.5,362C 280.252,362.671 280.586,363.504 280.5,364.5 Z"/></g>
<g><path style="opacity:1" fill="#faa41d" d="M 147.5,362.5 C 148.477,365.287 148.81,368.287 148.5,371.5C 149.5,371.5 150.5,371.5 151.5,371.5C 151.211,368.351 151.711,365.351 153,362.5C 154.809,365.735 154.809,369.068 153,372.5C 148.473,375.479 146.306,374.146 146.5,368.5C 146.573,366.41 146.906,364.41 147.5,362.5 Z"/></g>
<g><path style="opacity:1" fill="#191919" d="M 164.5,361.5 C 166.911,361.137 168.411,362.137 169,364.5C 169.483,363.552 169.649,362.552 169.5,361.5C 171.103,361.312 172.437,361.812 173.5,363C 172.54,366.73 172.207,370.563 172.5,374.5C 169.405,374.374 167.572,372.707 167,369.5C 166.506,371.134 166.34,372.801 166.5,374.5C 165.5,374.5 164.5,374.5 163.5,374.5C 163.231,370.069 163.564,365.735 164.5,361.5 Z"/></g>
<g><path style="opacity:1" fill="#212121" d="M 182.5,361.5 C 190.401,360.659 192.901,363.992 190,371.5C 187.804,374.125 184.97,375.125 181.5,374.5C 181.739,370.158 182.073,365.824 182.5,361.5 Z M 185.5,364.5 C 187.845,365.988 188.179,367.988 186.5,370.5C 185.539,368.735 185.205,366.735 185.5,364.5 Z"/></g>
<g><path style="opacity:1" fill="#2b2b2b" d="M 290.5,361.5 C 291.5,361.5 292.5,361.5 293.5,361.5C 293.699,374.637 294.366,374.637 295.5,361.5C 296.833,361.5 298.167,361.5 299.5,361.5C 299.608,365.247 299.108,368.914 298,372.5C 295.333,375.167 292.667,375.167 290,372.5C 289.421,368.797 289.588,365.131 290.5,361.5 Z"/></g>
<g><path style="opacity:1" fill="#202020" d="M 312.5,369.5 C 312.217,368.711 311.717,368.044 311,367.5C 310.503,369.81 310.337,372.143 310.5,374.5C 309.5,374.5 308.5,374.5 307.5,374.5C 307.739,370.158 308.073,365.824 308.5,361.5C 311.48,361.241 313.313,362.574 314,365.5C 314.49,364.207 314.657,362.873 314.5,361.5C 315.5,361.5 316.5,361.5 317.5,361.5C 317.5,365.833 317.5,370.167 317.5,374.5C 313.849,374.838 312.183,373.172 312.5,369.5 Z"/></g>
<g><path style="opacity:1" fill="#1c1c1c" d="M 327.5,361.5 C 332.156,360.34 334.823,362.007 335.5,366.5C 335.295,372.374 332.295,375.041 326.5,374.5C 326.231,370.069 326.564,365.735 327.5,361.5 Z M 330.5,364.5 C 332.733,366.217 332.733,368.217 330.5,370.5C 329.306,368.484 329.306,366.484 330.5,364.5 Z"/></g>
<g><path style="opacity:1" fill="#faa41e" d="M 346.5,362.5 C 349.045,362.151 351.045,362.984 352.5,365C 350.892,365.658 349.725,365.158 349,363.5C 348.308,364.025 347.808,364.692 347.5,365.5C 348.833,366.833 350.167,368.167 351.5,369.5C 350.289,370.72 350.289,371.887 351.5,373C 350.234,373.309 349.067,373.809 348,374.5C 346.795,373.929 345.628,373.262 344.5,372.5C 350.102,372.696 350.602,371.03 346,367.5C 345.36,365.735 345.527,364.068 346.5,362.5 Z"/></g>
<g><path style="opacity:1" fill="#f9a41b" d="M 243.5,363.5 C 244.776,364.386 244.776,365.386 243.5,366.5C 242.913,365.767 242.913,364.767 243.5,363.5 Z"/></g>
<g><path style="opacity:1" fill="#171717" d="M 220.5,373.5 C 218.612,371.012 217.945,368.012 218.5,364.5C 218.5,363.5 218.5,362.5 218.5,361.5C 221.119,361.232 223.619,361.565 226,362.5C 226.027,365.911 226.194,369.244 226.5,372.5C 226.167,373.5 225.5,374.167 224.5,374.5C 223.52,373.019 222.353,371.685 221,370.5C 220.517,371.448 220.351,372.448 220.5,373.5 Z M 221.5,364.5 C 223.424,364.711 223.757,365.377 222.5,366.5C 221.662,366.158 221.328,365.492 221.5,364.5 Z"/></g>
<g><path style="opacity:1" fill="#faa41d" d="M 243.5,363.5 C 242.603,364.598 241.77,364.598 241,363.5C 238.299,366.314 237.965,369.314 240,372.5C 240.187,370.655 241.02,368.989 242.5,367.5C 245.162,370.763 244.329,373.097 240,374.5C 235.845,371.552 235.345,367.885 238.5,363.5C 240.568,361.502 242.234,361.502 243.5,363.5 Z"/></g>
<g><path style="opacity:1" fill="#171717" d="M 256.5,373.5 C 254.612,371.012 253.945,368.012 254.5,364.5C 254.5,363.5 254.5,362.5 254.5,361.5C 257.119,361.232 259.619,361.565 262,362.5C 262.027,365.911 262.194,369.244 262.5,372.5C 262.167,373.5 261.5,374.167 260.5,374.5C 259.52,373.019 258.353,371.685 257,370.5C 256.517,371.448 256.351,372.448 256.5,373.5 Z M 257.5,364.5 C 259.424,364.711 259.757,365.377 258.5,366.5C 257.662,366.158 257.328,365.492 257.5,364.5 Z"/></g>
<g><path style="opacity:1" fill="#828282" d="M 221.5,364.5 C 221.328,365.492 221.662,366.158 222.5,366.5C 221.698,367.885 221.031,367.718 220.5,366C 220.57,365.235 220.903,364.735 221.5,364.5 Z"/></g>
<g><path style="opacity:1" fill="#828282" d="M 257.5,364.5 C 257.328,365.492 257.662,366.158 258.5,366.5C 257.698,367.885 257.031,367.718 256.5,366C 256.57,365.235 256.903,364.735 257.5,364.5 Z"/></g>
<g><path style="opacity:1" fill="#646464" d="M 185.5,364.5 C 185.205,366.735 185.539,368.735 186.5,370.5C 186.44,371.043 186.107,371.376 185.5,371.5C 184.203,369.027 184.203,366.693 185.5,364.5 Z"/></g>
<g><path style="opacity:1" fill="#565656" d="M 280.5,364.5 C 281.742,366.389 281.742,368.389 280.5,370.5C 279.5,370.5 278.5,370.5 277.5,370.5C 277.5,368.833 277.5,367.167 277.5,365.5C 278.801,370.734 279.801,370.4 280.5,364.5 Z"/></g>
<g><path style="opacity:1" fill="#4d4d4d" d="M 218.5,364.5 C 217.945,368.012 218.612,371.012 220.5,373.5C 219.791,374.404 218.791,374.737 217.5,374.5C 217.187,370.958 217.521,367.625 218.5,364.5 Z"/></g>
<g><path style="opacity:1" fill="#4d4d4d" d="M 254.5,364.5 C 253.945,368.012 254.612,371.012 256.5,373.5C 255.791,374.404 254.791,374.737 253.5,374.5C 253.187,370.958 253.521,367.625 254.5,364.5 Z"/></g>
<g><path style="opacity:1" fill="#5c5c5c" d="M 312.5,369.5 C 311.833,371.167 311.167,372.833 310.5,374.5C 310.337,372.143 310.503,369.81 311,367.5C 311.717,368.044 312.217,368.711 312.5,369.5 Z"/></g>
</svg>
